<svg xmlns="http://www.w3.org/2000/svg" width="168.835" height="168.835" viewBox="0 0 168.835 168.835"><defs><style>.a{fill:#f69c5d;}.b{fill:#f5874c;}.c{fill:#f9be78;}.d{fill:#fbce97;}.e{fill:#f9ab69;}</style></defs><g transform="translate(-462.988 -307.209) rotate(-45)"><path class="a" d="M89.482,662.191l-.512-.039S89.324,661.943,89.482,662.191Z" transform="translate(34.556 30.715)"/><path class="a" d="M89.919,662.187l.068.009-.167-.013Z" transform="translate(35.132 30.792)"/><path class="a" d="M90.327,662.219v.009l-.372-.034Z" transform="translate(35.224 30.799)"/><path class="b" d="M71.475,660.384l-.361,1.081A7.071,7.071,0,0,1,71.475,660.384Z" transform="translate(22.45 29.572)"/><path class="c" d="M182.3,668.813a7.539,7.539,0,0,1-.876,3.441v.005a7.152,7.152,0,0,1-5.536,3.351l-58.13,3.146-1.409.077q-.063.805-.133,1.614l49.847,2.389.186.008h.013l1.171.057s6.616.9,5.745,7.051a9.305,9.305,0,0,1-1.285,3.75A5.279,5.279,0,0,1,168,696.292l-53.473-1.752h-.062c-.042.285-.091.562-.133.839l.195.037.018.005,32.254,6.088s4.485,1.262,3.5,5.385v0a1.914,1.914,0,0,1-.065.27,5.345,5.345,0,0,1-2.866,3.755,3.366,3.366,0,0,1-1.5.3L107.592,704.6c-2.685.091-5.4.191-8.031.3-8.8.357-16.593.748-18.83.862-.42.024-.643.034-.643.034l-11.539-7.264-29.906,1.28-.062-3.913-.005-.342-.461-31.207L38.109,664,38,656.438l32.474.856L77,648.669l5.44-7.187.1-.005,12.4-16.713.005-.005.008-.015,1.6-2.156s2.858-10.472,7.141-3.331.951,15.231.951,15.231l-3.014,5.841-3.812,7.383-.124.238-.666,1.294,2.009-.252,3.433-.428.208-.023,1.757-.22,3.646-.21,1-.114,3.566-.415,1.166-.132,10.229-1.185,36.294-4.636s8.569-1.9,9.521,5.235a18.852,18.852,0,0,1,.171,2.032v.015a8.993,8.993,0,0,1-4.4,5.054h-.005c-13.756,3.77-50.032,7.655-50.032,7.655s.081.552.195,1.352l59.61-1.394S182.514,662.31,182.3,668.813Z" transform="translate(0 0)"/><g transform="translate(38 644.037)"><path class="b" d="M80.5,633.018c-1.7,5.645-3.962,12.709-5.17,14.831l-4.012,4.656-.477,8.091-2.856-7.616H38.109L38,645.418l32.474.856Z" transform="translate(-38 -633.018)"/><path class="b" d="M108.1,677.412c-11.887.386-24.634,1.029-27.6,1.181-.419.024-.643.034-.643.034l-11.539-7.264-29.906,1.28-.062-3.913H67.754l3.332-11.9.475,8.568,9.682,6.917-.161.223Z" transform="translate(-37.765 -616.874)"/></g><path class="d" d="M39.146,660.152v4.7l23.073.855,4.273-6.837Z" transform="translate(0.777 28.546)"/><path class="d" d="M58.7,647.244c-.426.428,0,5.556,0,5.556l2.138-4.274,5.126-5.126v-2.992Z" transform="translate(13.907 16.03)"/><path class="b" d="M79.212,621.532c-.529.889-17.436,29.26-18.021,30.344l.086-6.44,5.44-7.187.1-.005Z" transform="translate(15.723 3.232)"/><path class="e" d="M97.51,650.174l-.477,15.709s-10,2.856-12.377,12.851c0,0-13.8,6.665-16.659,3.332l1.428-9.044-4.76-4.76s16.66-12.375,16.66-24.275c0-1.363-.02-2.519-.054-3.5a29.4,29.4,0,0,0-.319-3.895l3.433-.428,1.965-.243,3.646-.21,1-.114,3.566-.414,1.166-.133Z" transform="translate(18.079 12.398)"/><path class="e" d="M84.24,658.176l50.673-1.147L84.24,654.844Z" transform="translate(31.349 25.817)"/><path class="e" d="M119.526,675.115c-1.618-3.957-36.137-11.477-36.137-11.477h.366l.018.005,32.254,6.088S120.512,670.992,119.526,675.115Z" transform="translate(30.772 31.779)"/><path class="e" d="M85.7,641.5l-4.812-1.118L65.233,636.74s10.472-1.9,12.377-.951l1.742-.581-.79,1.532,2.009-.252L84,636.06Z" transform="translate(18.463 12.504)"/><path class="b" d="M82.855,642.362s-12.377,18.088-19.04,20.469C63.815,662.831,76.19,663.306,82.855,642.362Z" transform="translate(17.502 17.354)"/><path class="b" d="M83.182,638.258,67.5,637.12s5.953-1.062,10.185-1.77l-.666,1.294,2.009-.252,3.433-.428.208-.023A14.24,14.24,0,0,1,83.182,638.258Z" transform="translate(20.002 12.6)"/><path class="b" d="M124.768,676.5a3.366,3.366,0,0,1-1.5.3L84.994,670.17c-2.685.091-5.4.191-8.031.3l-5.631-2.918L86.326,668.6Z" transform="translate(22.598 34.429)"/><path class="b" d="M85.087,646.334S70.331,665.85,77,674.418C77,674.418,73.663,666.325,85.087,646.334Z" transform="translate(25.265 20.047)"/><path class="b" d="M79.009,641.228s-3.332,26.656-9.521,31.415C69.488,672.643,77.581,671.691,79.009,641.228Z" transform="translate(21.348 16.585)"/><path class="b" d="M138.812,635.914v.015a8.993,8.993,0,0,1-4.4,5.054h-.005c-13.756,3.77-50.032,7.655-50.032,7.655l-.339-1.9S128.744,642.854,138.812,635.914Z" transform="translate(31.212 12.983)"/><path class="b" d="M149.69,649.837a7.152,7.152,0,0,1-5.536,3.351l-58.13,3.146H84.807v-1.9S137.586,653.164,149.69,649.837Z" transform="translate(31.733 22.422)"/><path class="b" d="M141.161,663.271a5.279,5.279,0,0,1-3.895,2.589l-53.473-1.752c-.124-.024-.243-.047-.366-.076-.466-.1.951-2.381.951-2.381S128.561,665.78,141.161,663.271Z" transform="translate(30.734 30.432)"/><path class="d" d="M78.037,621.937s-3.331,10-5.712,11.425l4.76-1.428S80.893,625.746,78.037,621.937Z" transform="translate(23.271 3.507)"/><path class="d" d="M87.36,637.377l31.416-3.809s-2.856,2.856-3.809,2.856S87.36,638.8,87.36,638.8Z" transform="translate(33.464 11.392)"/><path class="d" d="M108.636,644.916H125.3l1.9,2.38Z" transform="translate(47.888 19.085)"/></g></svg>