<svg xmlns="http://www.w3.org/2000/svg" width="139.83" height="139.829" viewBox="0 0 139.83 139.829"><defs><style>.a{fill:#f9be78;}.b{fill:#f69c5d;}.c{fill:#f5874c;}.d{fill:#fbce97;}.e{fill:#fcdcb6;}</style></defs><g transform="translate(-367.67 -234.323) rotate(-45)"><path class="a" d="M149.466,549.695c-.173.01-.353.02-.542.02l-5.06-.458-.459-.043-.074,0-.084-.011-.121-.01v0l-.527,12.118s0,.169-.6.411c-1.248.506-5.07,1.344-16.791,1.7C107.812,563.947,87.784,565,87.784,565l-14.23-8.96L36.66,557.621l-.08-5.249-.569-38.5-.144-9.75,40.057,1.055,14.758-19.5.6-.037,25.758-1.544.79,10.278,17.583-2.035.763-.09.037-.006,6.651-.769,2.583,10.336,1.655,6.608.506,2.03s1.844.263,2.372,2.9c.232,1.159.67,3.542,1.086,5.849.526,2.936,1.022,5.745,1.022,5.745a8.325,8.325,0,0,1-.163,3.916,1.949,1.949,0,0,1-1.84,1.349h-.006a.579.579,0,0,1-.1.006l.01.064.064.347,1.4,7.558,1.16,6.261S153.583,549.3,149.466,549.695Z"/><path class="b" d="M110.7,529.867l-.631-.047S110.506,529.562,110.7,529.867Z" transform="translate(31.296 19.242)"/><g transform="translate(94.57 501.811)"><path class="b" d="M123.684,505.195l-30.043,3.162-1.054-3.689s20.27-1.845,28.936-8.111Z" transform="translate(-70.648 -496.556)"/><path class="b" d="M125.743,519.8l.074.411c-2.973-.674-32.489.38-32.489.38V516.9s27.012,1.45,33.5-8.117c.526,2.936,1.022,5.745,1.022,5.745S128.9,519.8,125.743,519.8Z" transform="translate(-70.335 -491.398)"/><path class="b" d="M132.052,535.964c-1.476-.132-3.394-.28-5.6-.449l-.459-.031-.074,0-.2-.017-1.123-.084h-.006l-.631-.047c-11.327-.823-27.962-1.892-34.344-2.245-9.487-.527-15.811-5.272-10.541-14.758l1.655-1.676,3.088.1s0,6.852,2.108,7.378c0,0,35.182,11.559,48.121.327l1.16,6.261S136.169,535.569,132.052,535.964Z" transform="translate(-77.156 -488.08)"/><path class="b" d="M122.818,530.5l1.123.084-.527,12.118-31.36-4.48s-17.92-1.581-7.379-10.014c0,0-3.689,6.324,5.8,7.378s18.973,3.163,18.973,3.163,9.487,2.108,12.123-3.689C122.982,531.953,123.056,530.855,122.818,530.5Z" transform="translate(-75.386 -483.205)"/></g><path class="b" d="M111.429,529.888l.084.011-.206-.016Z" transform="translate(31.818 19.311)"/><path class="b" d="M111.963,529.929v.011l-.459-.042Z" transform="translate(31.901 19.317)"/><path class="c" d="M92.587,493.8l19.7-3.973-19.7,2.392V493.8Z" transform="translate(23.922 2.417)"/><path class="c" d="M123.684,503.234l-31.1,3.689,1.449-1.1,29.141-4.622Z" transform="translate(23.922 7.216)"/><path class="c" d="M93.328,517.726l32.151-.527,2.208-1.618L93.328,517.1Z" transform="translate(24.235 13.279)"/><path class="c" d="M142,561.263c-1.248.506-5.07,1.344-16.791,1.7-17.394.527-37.422,1.581-37.422,1.581l-14.23-8.96L36.66,557.163l-.08-5.249,34.864.506,3.689-15.285,1.055,11.6,11.594,7.905,27.935,1.581-13.177-3.162s-5.671-4.1.327-7.848c0,0-9.814-.057-9.287-10.6,0,0-8.432,3.163-12.122,2.109v-2.635s10.541,0,14.758-4.744l-5.27-37.421L76.189,512.363,75.662,522.9l-4.217-9.488H36.012l-.144-9.75,40.057,1.055,14.758-19.5.6-.037,8.629,46.682s4.353,8.154,15.089.911l2.831-1.439s-1.055,5.8-8.434,6.853-12.649-1.055-12.649-5.272c0,0-4.216,7.379,2.108,10.542,0,0,4.744,3.162,21.083,3.162H104.65s-5.208,3.7.3,8.438Z" transform="translate(0 0.458)"/><g transform="translate(90.683 484.096)"><path class="a" d="M101.829,530.478c-.527,3.69-1.581,5.271-9.487,6.852-3.567.711-5.95-.074-7.5-1.155a7.155,7.155,0,0,1-2.514-3.062l-7.906-47.436,23.644-1.417,2.71-.164S102.357,526.789,101.829,530.478Z" transform="translate(-74.422 -484.096)"/><path class="b" d="M98.738,530.478c-.527,3.69-1.581,5.271-9.487,6.852-3.567.711-5.95-.074-7.5-1.155,13.847,2.256,15.669-5.961,15.669-5.961L94.975,484.26l2.71-.164S99.266,526.789,98.738,530.478Z" transform="translate(-71.331 -484.096)"/><path class="d" d="M77.759,487.589l3.162,11.067s10.541,1.582,12.649,0,1.054-11.594,1.054-11.594Z" transform="translate(-73.015 -482.845)"/><path class="e" d="M82.536,521.912c-.509-.135-2.107-7.905-2.107-7.905s-1.582-2.108,3.162-3.163,11.594-2.635,12.122,0a75.717,75.717,0,0,1,.527,9.487A18.306,18.306,0,0,1,82.536,521.912Z" transform="translate(-71.995 -473.423)"/></g><path class="d" d="M37.537,526.641v5.8L66,533.492l5.271-8.433Z" transform="translate(0.704 17.277)"/><path class="d" d="M65.966,506.615c-.527.527,0,6.853,0,6.853L68.6,508.2l6.325-6.325v-3.689Z" transform="translate(12.595 5.941)"/><path class="d" d="M104.45,517.831l1.054,10.541s5.27,1.054,5.27-1.055-1.581-9.486-1.581-9.486Z" transform="translate(28.925 14.228)"/></g></svg>