<svg xmlns="http://www.w3.org/2000/svg" width="139.602" height="139.602" viewBox="0 0 139.602 139.602"><defs><style>.a{fill:#f9be78;}.b{fill:#f69c5d;}.c{fill:#f9ab69;}.d{fill:#fbce97;}.e{fill:#fcdcb6;}.f{fill:#f5874c;}.g{fill:#f6985a;}.h{fill:#fccd95;}</style></defs><g transform="translate(-417.9 -272.619) rotate(-45)"><path class="a" d="M169.033,599.036a12.088,12.088,0,0,1-.454,1.335c-2.7,6.642-9.28,3.764-9.28,3.764l-31.141-7.328-.351-.083a.069.069,0,0,1-.028,0l-.329,2.054-1.28,7.931-.709,4.385-3.709-1.854-1.854,9.734-5.822-1.748c-1.882.163-4.339.307-7.551.4-12.117.366-25.856,1.057-28.915,1.215-.408.024-.626.033-.626.033L65.75,611.8l-29.124,1.247-.061-3.81,0-.334-.449-30.39,0-.334L36,570.81l31.623.835,11.653-15.4.469-.028,1.52-.092h0L100.078,555l.543,7.008.013.2.07.907,2.7-.31,1.812-.209,3.473-.4,11.1-1.284,35.345-4.514s8.343-1.855,9.27,5.1a16.832,16.832,0,0,1,.163,2.878c-.185,4.751-3.083,6.537-8.97,7.32-4.259.571-19.653,2.7-30.94,4.269l-11.936,1.659c-.371.05-.6.083-.672.094l-.024,0,.464.927,14.234,2.846,36.753,7.352S171.35,590.692,169.033,599.036Z" transform="translate(0 0)"/><path class="b" d="M92.664,589.649l-.5-.037S92.51,589.409,92.664,589.649Z" transform="translate(27.121 16.675)"/><path class="b" d="M93.2,589.66l.067.008-.162-.013Z" transform="translate(27.573 16.735)"/><path class="b" d="M93.612,589.692v.008l-.362-.033Z" transform="translate(27.645 16.74)"/><g transform="translate(77.611 562.008)"><path class="c" d="M91.959,590.5l-12.051-2.782L78.981,559.9l.885-.176.013.2.07.907,2.7-.31,1.812-.209,3.473-.4c1.154,1.849,2.536,6.059,3.356,15.52a.267.267,0,0,0,0,.059C91.634,579.482,91.876,584.415,91.959,590.5Z" transform="translate(-56.856 -559.726)"/><path class="c" d="M114.693,585.243l-.085.552-.38-.088-.329,2.054-1.28,7.93-.709,4.385-3.709-1.854-1.854,9.734-5.822-1.748c-1.882.163-4.339.307-7.551.4-12.117.366-25.856,1.057-28.915,1.215.927-4.876,3.592-17.354,7.291-21.423,0,0-4.171-6.491,0-8.344s1.391,6.953,9.5,6.258a83.436,83.436,0,0,0,17.614,7.416c8.807,2.318,12.051,1.391,12.051,1.391l1.391-8.807Z" transform="translate(-64.061 -550.997)"/></g><g transform="translate(79.274 555)"><path class="a" d="M86.819,591.615c-.417,2.912-1.249,4.161-7.49,5.409a7.406,7.406,0,0,1-5.921-.91,5.651,5.651,0,0,1-1.984-2.419l-6.241-37.447,18.665-1.12,2.14-.129S87.234,588.7,86.819,591.615Z" transform="translate(-65.182 -555)"/><path class="b" d="M84.14,591.615c-.417,2.912-1.249,4.161-7.49,5.409a7.406,7.406,0,0,1-5.921-.91c10.93,1.779,12.37-4.707,12.37-4.707l-1.931-36.279,2.14-.129S84.555,588.7,84.14,591.615Z" transform="translate(-62.503 -555)"/><path class="d" d="M67.707,557.66l2.5,8.739s8.322,1.249,9.986,0,.832-9.154.832-9.154Z" transform="translate(-63.963 -553.916)"/><path class="e" d="M71.4,584.031c-.4-.108-1.665-6.241-1.665-6.241s-1.247-1.665,2.5-2.5,9.154-2.08,9.571,0a59.949,59.949,0,0,1,.415,7.49A14.45,14.45,0,0,1,71.4,584.031Z" transform="translate(-63.079 -545.751)"/></g><path class="d" d="M37.263,587.254v4.577l22.469.832,4.161-6.657Z" transform="translate(0.61 14.972)"/><path class="d" d="M58.788,572.32c-.415.417,0,5.409,0,5.409l2.08-4.161,4.993-4.993v-2.912Z" transform="translate(10.915 5.149)"/><path class="f" d="M114.336,606.549h-.927l-19.931-4.173,13.442,2.318-19.933-6.952a13.363,13.363,0,0,1-2.78-1.855s-6.953,2.782-11.125,2.782v-2.782a20.257,20.257,0,0,0,9.734-1.854s0-3.709.464-4.171c0,0,.463,3.707,1.391,4.171L80.036,563.9,68.447,577.346l-.464,7.88-2.78-7.417h-29.1L36,570.443l31.623.835,11.653-15.4.469-.028,1.52-.092h0l.621.727,5.562,37.083a7.4,7.4,0,0,0,10.2,0l2.318-.927s.464,3.709-5.1,4.635a39.26,39.26,0,0,1-4.324.58Z" transform="translate(0 0.367)"/><path class="f" d="M72.841,587.675l-.353,1.051A6.627,6.627,0,0,1,72.841,587.675Z" transform="translate(17.62 15.778)"/><path class="f" d="M119.752,604.891l-.037.19-5.822-1.748c-1.882.163-4.339.307-7.551.4-12.117.366-25.856,1.057-28.915,1.215-.408.024-.626.033-.626.033l-11.236-7.073-29.124,1.247-.061-3.81H65.018l3.245-11.589.464,8.343,9.734,6.953,20.858.927-6.952-3.707s-3.94-.233-2.551-5.331l.107-.325c-.4,1.572-.621,4.437,2.675,5.423,4.635,1.391,20.858,6.491,20.858,6.491Z" transform="translate(0.184 13.887)"/><path class="f" d="M103.7,593.677l-23.64-6.026-1.391-26.885,1.363-.909.07.909,2.7-.311-1.812,26.268Z" transform="translate(20.604 2.346)"/><path class="g" d="M139.579,561.317c-.185,4.751-3.083,6.537-8.97,7.32-4.259.571-19.653,2.7-30.94,4.269l-11.936,1.659,2.086-3.611,41.717-5.562A14.979,14.979,0,0,0,139.579,561.317Z" transform="translate(24.981 3.05)"/><path class="g" d="M143.6,588.864c-2.7,6.642-9.28,3.764-9.28,3.764L103.177,585.3l-.351-.083a.068.068,0,0,1-.028,0L87.964,581.5l-.231-2.675,41.949,10.555S140.094,591.989,143.6,588.864Z" transform="translate(24.981 11.506)"/><path class="a" d="M73.1,589.073s-1.389,2.318,3.246,3.709,20.858,6.953,20.858,6.953l2.318-7.417-23.176-4.635S73.1,587.219,73.1,589.073Z" transform="translate(17.823 15.757)"/><path class="h" d="M89.436,582.351l-1.391,6.489,4.172,1.391,1.391-7.417Z" transform="translate(25.132 13.207)"/></g></svg>